<svg width="92" height="17" viewBox="0 0 92 17" fill="none" xmlns="http://www.w3.org/2000/svg">
<path d="M84.6929 10.9404C84.0016 11.9187 83.0052 12.1162 81.9189 12.0893C81.0302 12.0713 80.294 11.7482 79.9619 10.8776C79.6297 10.0248 79.8092 9.21703 80.4287 8.54384C81.2097 7.69113 82.278 7.45776 83.3642 7.2962C85.0071 7.06283 84.7647 7.32312 84.7827 5.67157C84.7827 5.57284 84.7827 5.48308 84.7827 5.38435C84.7737 4.8458 84.7108 4.34315 84.0735 4.16363C83.4361 3.98412 82.7358 4.17261 82.3947 4.69321C82.1882 5.00736 82.0536 5.37537 81.883 5.70748C81.7034 6.04856 81.4431 6.22807 81.0391 6.07548C80.6441 5.9229 80.4736 5.62669 80.5544 5.21381C80.6441 4.72911 80.9404 4.37905 81.3623 4.16363C82.6102 3.52635 83.9119 3.41864 85.2315 3.85846C86.0484 4.13671 86.4165 4.72013 86.4165 5.60874C86.4255 7.26029 86.4075 8.92082 86.4255 10.5724C86.4345 11.3353 87.0808 11.7662 87.799 11.5148C88.203 11.3712 88.4364 11.1109 88.4364 10.6711C88.4364 7.53855 88.4364 4.39701 88.4364 1.26444C88.4364 0.788722 88.185 0.627157 87.7541 0.645109C87.5925 0.645109 87.3322 0.716915 87.3232 0.501495C87.3053 0.268124 87.5746 0.33993 87.7272 0.330955C88.2658 0.313003 88.7865 0.205293 89.2982 0.0706555C89.9536 -0.0909094 90.0523 -0.010127 90.0613 0.681012C90.0613 1.85685 90.0613 3.04165 90.0613 4.21749C90.0613 6.34476 90.0613 8.47203 90.0613 10.6083C90.0613 11.443 90.1062 11.4969 90.9321 11.6046C91.0398 11.6225 91.2014 11.5866 91.2014 11.7392C91.2014 11.9277 91.0219 11.9098 90.9051 11.9008C89.2892 11.8559 87.6733 11.9726 86.0574 12.0713C85.3123 12.1072 85.0161 11.811 84.6929 10.9404ZM84.7737 8.92082C84.7827 8.73233 84.7827 8.54384 84.7827 8.34637C84.7737 7.73601 84.6839 7.65523 84.0645 7.74499C83.5348 7.8168 83.0141 7.94246 82.5473 8.21173C81.6945 8.67847 81.2995 9.62094 81.5329 10.5365C81.6227 10.8686 81.7932 11.1289 82.1254 11.2545C83.3373 11.7123 84.7019 10.8417 84.7737 9.54913C84.7827 9.33371 84.7737 9.12727 84.7737 8.92082Z" fill="white"/>
<path d="M23.0727 16.9999C22.2109 16.9371 21.3581 16.8832 20.5501 16.5511C19.6883 16.1921 19.1227 15.6087 19.1048 14.6303C19.0868 13.6519 19.5267 12.9608 20.4244 12.5569C20.5501 12.503 20.6668 12.4492 20.7925 12.3953C20.999 12.2966 21.0528 12.1799 20.8553 12.0183C20.7835 11.9555 20.7027 11.9016 20.6309 11.8478C19.7781 11.1656 19.796 10.3578 20.6668 9.68461C21.2503 9.23581 21.2503 9.23581 20.7207 8.70624C19.1856 7.1983 19.7781 4.4876 21.8159 3.81441C23.0907 3.39255 24.3385 3.45538 25.4427 4.32604C25.7569 4.57736 25.9095 4.46067 26.0442 4.16447C26.1609 3.90417 26.2776 3.64387 26.4212 3.40153C26.6457 3.02454 26.9868 2.95274 27.3459 3.18611C27.705 3.41948 27.8576 3.75158 27.6242 4.16447C27.3998 4.55941 27.0407 4.82868 26.6187 4.9723C26.2956 5.08001 26.2238 5.20567 26.2866 5.53777C26.7893 8.11384 25.0477 9.89105 22.4264 9.49611C22.0224 9.43328 21.6094 9.29865 21.2863 9.74744C20.9182 10.2591 21.0259 10.7078 21.6274 10.9053C22.3097 11.1297 23.0189 11.1118 23.7191 11.1297C24.3475 11.1477 24.9759 11.1746 25.5774 11.39C26.6367 11.758 27.3459 12.4133 27.4536 13.5891C27.5614 14.8457 27.0137 15.8869 25.9544 16.4344C25.0477 16.8742 24.0602 16.9371 23.0727 16.9999ZM23.0907 16.4703C23.9615 16.4524 24.7066 16.4165 25.3709 16.0215C26.1519 15.5638 26.4033 14.8367 26.3225 13.984C26.2507 13.1942 25.712 12.7992 25.0028 12.5928C24.1141 12.3325 23.2074 12.2966 22.2917 12.4402C21.1426 12.6107 20.5232 13.3557 20.5411 14.4597C20.5591 15.5907 21.1785 16.2549 22.3545 16.4165C22.6508 16.4524 22.9381 16.4524 23.0907 16.4703ZM24.6707 6.84824C24.6797 6.13018 24.6437 5.58265 24.4373 5.06205C24.1769 4.40682 23.7281 4.09267 23.0997 4.11062C22.4533 4.12857 21.9865 4.4517 21.78 5.09796C21.4748 6.04042 21.4658 7.00981 21.7531 7.96125C21.9865 8.70624 22.4623 9.03835 23.1894 9.01142C23.9256 8.98449 24.3475 8.63443 24.554 7.87149C24.6707 7.47655 24.6707 7.08162 24.6707 6.84824Z" fill="white"/>
<path d="M72.8071 4.80973C73.0854 4.75587 73.1662 4.59431 73.2918 4.4866C73.9562 3.93907 74.7102 3.61594 75.59 3.62492C77.3136 3.64287 78.2922 4.56738 78.3371 6.29074C78.373 7.7538 78.346 9.21686 78.346 10.6799C78.346 11.4339 78.3999 11.4967 79.1719 11.5955C79.2976 11.6134 79.4772 11.5775 79.4592 11.775C79.4502 11.9006 79.2887 11.9006 79.1719 11.9006C78.0857 11.9006 76.9994 11.9006 75.9222 11.9006C75.8055 11.9006 75.6529 11.9006 75.6439 11.766C75.6349 11.5685 75.8144 11.5955 75.9401 11.6044C76.5416 11.6314 76.7391 11.2993 76.7391 10.7517C76.7301 9.32457 76.7571 7.89741 76.7212 6.47923C76.6852 5.03413 76.0119 4.51353 74.5666 4.76485C74.3601 4.80075 74.1536 4.85461 73.9561 4.91744C72.8879 5.29442 72.8071 5.42009 72.8071 6.54206C72.8071 7.88844 72.8071 9.24379 72.8071 10.5902C72.8071 11.4339 72.852 11.4788 73.6599 11.5955C73.7676 11.6134 73.9202 11.5865 73.9202 11.7391C73.9292 11.8917 73.7766 11.9006 73.6689 11.9006C72.5647 11.9006 71.4605 11.9006 70.3563 11.9006C70.2485 11.9006 70.1049 11.9006 70.1139 11.7391C70.1318 11.5775 70.2755 11.5955 70.3832 11.6044C71.0206 11.6403 71.1912 11.2813 71.1912 10.7158C71.1732 8.795 71.1912 6.87417 71.1822 4.95334C71.1822 4.20835 71.1373 4.15449 70.3922 4.09166C70.2665 4.08269 70.069 4.11859 70.069 3.94805C70.06 3.73263 70.2755 3.77751 70.4101 3.76853C71.0026 3.75956 71.5862 3.65185 72.1517 3.48131C72.6096 3.34667 72.8071 3.49926 72.7981 3.966C72.8071 4.2263 72.8071 4.49558 72.8071 4.80973Z" fill="white"/>
<path d="M59.9693 10.8688C59.673 10.9047 59.5653 11.0842 59.4306 11.2009C58.5598 11.9638 57.5544 12.2421 56.4143 12.0805C55.337 11.9279 54.6637 11.2996 54.4572 10.2225C54.2956 9.35186 54.3944 8.47222 54.3764 7.60157C54.3585 6.68603 54.3495 5.7705 54.3764 4.86394C54.3944 4.30744 54.1969 4.03817 53.6223 4.07407C53.4787 4.08304 53.2543 4.12792 53.2543 3.92148C53.2543 3.72401 53.4787 3.75991 53.6223 3.75991C54.1969 3.74196 54.7535 3.62528 55.3101 3.49064C55.8667 3.356 55.9834 3.44576 55.9834 4.03817C55.9923 5.61791 55.9834 7.19766 55.9834 8.7774C55.9834 8.89409 55.9834 9.0018 55.9834 9.11848C56.0103 10.9406 56.8811 11.5599 58.6137 10.9765C58.7933 10.9136 58.9638 10.8329 59.1434 10.7611C59.7448 10.5097 60.0231 10.1148 59.9872 9.39673C59.9244 7.89777 59.9513 6.38983 59.9782 4.89087C59.9872 4.31642 59.8077 4.02021 59.1972 4.06509C59.0626 4.07407 58.8381 4.11895 58.8561 3.89455C58.8651 3.73299 59.0626 3.75991 59.1883 3.75991C59.7808 3.75094 60.3643 3.64323 60.9298 3.48166C61.4326 3.32908 61.5852 3.53552 61.5852 4.01124C61.5762 6.20134 61.5852 8.38247 61.5852 10.5726C61.5852 11.1021 61.5134 11.6856 62.3572 11.5958C62.465 11.5868 62.5817 11.6945 62.5637 11.8112C62.5547 11.8651 62.4201 11.9548 62.3482 11.9459C61.6929 11.9279 61.0645 12.0715 60.4271 12.1972C60.1129 12.26 59.9783 12.0536 59.9693 11.7664C59.9693 11.4791 59.9693 11.1829 59.9693 10.8688Z" fill="white"/>
<path d="M6.86902 3.82191C8.14379 3.82191 9.31981 3.82191 10.4958 3.82191C10.6036 3.82191 10.7562 3.81293 10.7382 3.98347C10.7203 4.13606 10.5766 4.12709 10.4689 4.11811C9.76868 4.0463 9.46345 4.45022 9.22107 5.04262C8.25152 7.45712 7.24607 9.86264 6.24959 12.2682C5.62118 13.7941 4.80425 15.2033 3.60129 16.3522C3.39482 16.5496 3.17936 16.7381 2.89209 16.8099C2.34448 16.9446 1.84175 16.6125 1.75198 16.0649C1.67118 15.5533 1.93152 15.1943 2.533 15.1853C3.90652 15.1763 4.59777 14.2967 5.18129 13.2465C5.35186 12.9324 5.31595 12.6272 5.15436 12.322C3.90652 9.84469 2.66766 7.35838 1.4288 4.88106C1.17743 4.38739 0.764478 4.14504 0.225842 4.11811C0.136069 4.10913 0.0103871 4.10016 0.00140986 3.99245C-0.0165447 3.83088 0.127092 3.83088 0.234819 3.83088C1.69811 3.83088 3.17039 3.82191 4.63368 3.83088C4.74141 3.83088 4.89402 3.81293 4.88504 3.98347C4.87607 4.13606 4.73243 4.10913 4.6247 4.11811C4.49004 4.12709 4.35539 4.10913 4.22073 4.12709C3.64618 4.18992 3.31402 4.67461 3.57436 5.19521C4.41823 6.88267 5.28902 8.54319 6.15982 10.2127C6.31243 10.5089 6.483 10.5269 6.61766 10.1947C7.29095 8.49831 7.9822 6.81086 8.63754 5.10545C8.84402 4.55793 8.49391 4.18094 7.83856 4.11811C7.53334 4.09118 7.17425 4.2707 6.86902 3.82191Z" fill="white"/>
<path d="M32.6875 10.8773C31.9334 11.8915 30.9549 12.098 29.8956 12.089C28.9799 12.08 28.2348 11.7479 27.8847 10.8593C27.5345 9.96172 27.768 9.12697 28.4502 8.45379C29.2312 7.67289 30.2636 7.44849 31.314 7.2959C32.9119 7.07151 32.7234 7.32283 32.7324 5.65333C32.7414 4.62111 32.5349 4.27105 31.8885 4.13641C31.0716 3.96587 30.4611 4.29798 30.0661 5.14171C29.9764 5.3302 29.9045 5.52767 29.8058 5.71616C29.6442 6.04826 29.3839 6.20983 29.0158 6.08417C28.6477 5.95851 28.4502 5.70718 28.4861 5.31225C28.531 4.83653 28.7824 4.46852 29.1774 4.2531C30.515 3.5081 31.9244 3.37347 33.3518 3.94792C34.052 4.22617 34.3752 4.81858 34.3752 5.58152C34.3662 7.21512 34.3752 8.84872 34.3752 10.4913C34.3752 11.4068 34.7074 11.6133 35.5423 11.2542C35.7218 11.1735 35.9732 10.8773 36.1168 11.1465C36.2425 11.3889 35.9283 11.5774 35.7128 11.6851C35.0934 12.0172 34.4201 12.1339 33.7199 12.0351C33.1274 11.9454 32.7503 11.6133 32.6875 10.8773ZM32.7144 8.91155C32.7234 8.91155 32.7324 8.91155 32.7324 8.91155C32.7324 8.72306 32.7234 8.53457 32.7324 8.3371C32.7683 7.83445 32.5618 7.63699 32.0501 7.72674C31.5025 7.82548 30.9639 7.93319 30.4701 8.20246C29.6262 8.66921 29.2223 9.61167 29.4647 10.5362C29.5544 10.8683 29.734 11.1286 30.0661 11.2453C31.2422 11.6761 32.5618 10.8773 32.7055 9.64757C32.7324 9.40522 32.7144 9.1539 32.7144 8.91155Z" fill="white"/>
<path d="M13.7817 12.2143C12.48 12.1784 10.9987 11.604 10.2356 9.86265C9.49053 8.14826 9.83166 6.0569 11.0167 4.85413C12.462 3.39107 15.2988 3.17565 16.9776 4.41432C18.6832 5.67093 19.2129 8.19314 18.1626 10.105C17.4175 11.4603 16.017 12.2143 13.7817 12.2143ZM17.0584 8.22007C17.0584 7.17887 16.9057 6.17358 16.2773 5.30293C15.5861 4.36046 14.6614 3.94758 13.4944 4.17197C12.3722 4.37842 11.8426 5.15931 11.6092 6.20051C11.3847 7.22375 11.4117 8.23802 11.6989 9.24331C11.8695 9.83572 12.1388 10.3743 12.5608 10.832C13.3148 11.6309 14.2485 11.8373 15.2809 11.586C16.2235 11.3526 16.6454 10.6346 16.8788 9.75494C17.0135 9.25229 17.0314 8.73169 17.0584 8.22007Z" fill="white"/>
<path d="M48.5325 12.2142C46.4857 12.2052 45.0044 11.2448 44.4389 9.55733C43.7925 7.6365 44.3311 5.56309 45.7585 4.48599C47.4283 3.22937 50.2202 3.34606 51.6835 4.72833C53.2007 6.16447 53.461 8.70463 52.285 10.437C51.486 11.6038 50.1933 12.2231 48.5325 12.2142ZM51.3873 8.29174C51.3962 7.3762 51.2795 6.59531 50.9294 5.85929C50.4805 4.93478 49.7893 4.29749 48.739 4.13593C47.536 3.94744 46.4857 4.49496 46.1086 5.63489C45.5071 7.46596 45.5969 9.24317 46.8807 10.796C47.5809 11.6397 48.5504 11.8192 49.5828 11.5769C50.5254 11.3525 50.9653 10.6434 51.1987 9.76377C51.3334 9.25215 51.3962 8.72258 51.3873 8.29174Z" fill="white"/>
<path d="M42.8138 9.27994C42.8138 10.9315 42.8138 12.592 42.8138 14.2436C42.8138 15.4553 42.3291 16.2721 41.3954 16.6222C40.1925 17.071 39.0524 16.9632 38.0379 16.1375C37.6519 15.8233 37.6878 15.3027 38.0649 14.9975C38.397 14.7283 38.6933 14.7372 38.9177 15.1322C39.0883 15.4284 39.214 15.7515 39.4025 16.0387C39.6269 16.3888 39.9232 16.5863 40.39 16.4786C40.8478 16.3708 41.0633 16.0746 41.1171 15.6528C41.171 15.2219 41.2159 14.7821 41.2159 14.3513C41.2249 11.2546 41.2249 8.14898 41.2159 5.05232C41.2159 4.23552 41.2069 4.22655 40.3631 4.11884C40.2553 4.10089 40.1027 4.13679 40.0937 3.9842C40.0848 3.82264 40.2374 3.83161 40.3361 3.83161C40.9825 3.79571 41.6199 3.67902 42.2483 3.51746C42.6971 3.40077 42.8228 3.63414 42.8138 4.03806C42.8138 5.77937 42.8138 7.52965 42.8138 9.27994Z" fill="white"/>
<path d="M66.0829 5.1423C66.3163 4.87303 66.5407 4.60375 66.7831 4.35243C67.3217 3.8049 67.9681 3.53563 68.7401 3.67924C68.9825 3.72412 69.2608 3.78695 69.2518 4.11008C69.2339 4.52297 69.2967 4.98971 68.9735 5.29489C68.7401 5.51929 68.4798 5.26796 68.2643 5.13333C67.3576 4.56785 66.8908 4.69351 66.3971 5.64495C66.0649 6.28223 65.9482 6.97337 65.9392 7.68246C65.9302 8.70571 65.9482 9.73793 65.9303 10.7612C65.9213 11.3266 66.1367 11.6318 66.7292 11.6049C66.8459 11.5959 67.0524 11.551 67.0434 11.7395C67.0434 11.9639 66.828 11.9011 66.6933 11.9011C65.6699 11.9101 64.6375 11.9101 63.6141 11.9011C63.4795 11.9011 63.264 11.9639 63.264 11.7395C63.264 11.551 63.4615 11.5959 63.5782 11.6049C64.1528 11.6139 64.3233 11.2997 64.3233 10.7701C64.3143 8.79546 64.3054 6.82078 64.3233 4.8461C64.3323 4.31653 64.1348 4.0652 63.5872 4.09213C63.4435 4.10111 63.2101 4.15496 63.2012 3.95749C63.1922 3.71514 63.4435 3.77798 63.5962 3.77798C64.1527 3.76002 64.6914 3.64334 65.23 3.51768C65.8225 3.37406 65.9302 3.46382 65.9392 4.09213C65.9482 4.43321 65.9392 4.76532 65.9392 5.1064C65.9931 5.1064 66.038 5.12435 66.0829 5.1423Z" fill="white"/>
<path d="M41.9702 2.4223C41.3867 2.40435 40.9468 1.93761 40.9648 1.33623C40.9827 0.770752 41.4316 0.330936 41.9971 0.330936C42.5717 0.330936 43.0475 0.815631 43.0385 1.39008C43.0295 1.97351 42.5448 2.44026 41.9702 2.4223Z" fill="white"/>
</svg>
